<svg xmlns="http://www.w3.org/2000/svg" width="760" height="470" viewBox="0 0 760 470" role="img" aria-labelledby="title desc">
  <title id="title">Yüksekliğin zamana göre değişim grafiği</title>
  <desc id="desc">Cismin yüksekliği başlangıçta yedi metredir, üçüncü saniyede on altı metreyle en büyük değerini alır ve yedinci saniyede sıfır olur.</desc>
  <defs>
    <marker id="axisArrow38" markerWidth="8" markerHeight="8" refX="6" refY="4" orient="auto">
      <path d="M0 0 L8 4 L0 8 Z" fill="#334155"/>
    </marker>
  </defs>
  <rect x="1" y="1" width="758" height="468" rx="22" fill="#ffffff" stroke="#e2e8f0" stroke-width="2"/>
  <g stroke="#e2e8f0" stroke-width="1">
    <path d="M140 70V410 M215 70V410 M290 70V410 M365 70V410 M440 70V410 M515 70V410 M590 70V410 M665 70V410"/>
    <path d="M100 112H690 M100 184H690 M100 256H690 M100 328H690 M100 400H690"/>
  </g>
  <g stroke="#334155" stroke-width="3" marker-end="url(#axisArrow38)">
    <path d="M90 400H710"/>
    <path d="M140 425V45"/>
  </g>
  <g fill="#475569" font-family="Arial, sans-serif" font-size="17">
    <text x="695" y="428">t</text>
    <text x="157" y="56">h</text>
    <text x="120" y="425">0</text>
    <text x="359" y="425">3</text>
    <text x="659" y="425">7</text>
    <text x="101" y="118">16</text>
    <text x="111" y="280">7</text>
  </g>
  <polyline points="140,274 178,225 215,184 253,153 290,130 328,117 365,112 403,117 440,130 478,153 515,184 553,225 590,274 628,333 665,400" fill="none" stroke="#2563eb" stroke-width="7" stroke-linecap="round" stroke-linejoin="round"/>
  <g fill="#7c3aed" stroke="#ffffff" stroke-width="4">
    <circle cx="140" cy="274" r="9"/>
    <circle cx="365" cy="112" r="10"/>
    <circle cx="665" cy="400" r="9"/>
  </g>
  <path d="M365 112V400" stroke="#94a3b8" stroke-width="2.5" stroke-dasharray="8 7"/>
  <text x="385" y="101" fill="#5b21b6" font-family="Arial, sans-serif" font-size="19" font-weight="700">(3, 16)</text>
</svg>
