<svg xmlns="http://www.w3.org/2000/svg" width="760" height="470" viewBox="0 0 760 470" role="img" aria-labelledby="title desc">
  <title id="title">Fonksiyon grafiği ve y eşittir x doğrusu</title>
  <desc id="desc">Parçalı doğrusal fonksiyon grafiği, y eşittir x doğrusunu iki farklı noktada kesmektedir.</desc>
  <defs>
    <marker id="axisArrow23" markerWidth="8" markerHeight="8" refX="6" refY="4" orient="auto">
      <path d="M0 0 L8 4 L0 8 Z" fill="#334155"/>
    </marker>
  </defs>
  <rect x="1" y="1" width="758" height="468" rx="22" fill="#ffffff" stroke="#e2e8f0" stroke-width="2"/>
  <g stroke="#e2e8f0" stroke-width="1">
    <path d="M110 60V410 M170 60V410 M230 60V410 M290 60V410 M350 60V410 M410 60V410 M470 60V410 M530 60V410 M590 60V410 M650 60V410"/>
    <path d="M80 80H680 M80 140H680 M80 200H680 M80 260H680 M80 320H680 M80 380H680"/>
  </g>
  <g stroke="#334155" stroke-width="3" marker-end="url(#axisArrow23)">
    <path d="M65 260H705"/>
    <path d="M350 425V45"/>
  </g>
  <g fill="#475569" font-family="Arial, sans-serif" font-size="18">
    <text x="687" y="289">x</text>
    <text x="366" y="57">y</text>
    <text x="328" y="286">0</text>
  </g>
  <path d="M110 410L650 50" fill="none" stroke="#94a3b8" stroke-width="3" stroke-dasharray="10 8"/>
  <text x="590" y="74" fill="#64748b" font-family="Arial, sans-serif" font-size="20" font-style="italic">y = x</text>
  <polyline points="110,320 230,380 350,140 470,80 650,20" fill="none" stroke="#2563eb" stroke-width="7" stroke-linecap="round" stroke-linejoin="round"/>
  <g fill="#2563eb" stroke="#ffffff" stroke-width="4">
    <circle cx="190" cy="360" r="8"/>
    <circle cx="268" cy="305" r="8"/>
  </g>
  <text x="625" y="46" fill="#1d4ed8" font-family="Georgia, serif" font-size="30" font-style="italic">f</text>
</svg>
